<svg width="229" height="21" viewBox="0 0 229 21" fill="none" xmlns="http://www.w3.org/2000/svg">
<path d="M5.336 20C3.84 20 2.74 19.934 2.036 19.802C1.332 19.67 0.98 19.516 0.98 19.34L2.3 16.469C2.806 16.557 4.06 16.645 6.062 16.733C8.086 16.799 10.858 16.832 14.378 16.832H15.005C15.951 16.832 16.622 16.667 17.018 16.337C17.414 15.985 17.612 15.402 17.612 14.588V13.928C17.612 13.158 17.447 12.608 17.117 12.278C16.809 11.948 16.105 11.783 15.005 11.783H7.349C5.127 11.783 3.51 11.376 2.498 10.562C1.486 9.726 0.98 8.373 0.98 6.503V5.975C0.98 5.007 1.156 4.116 1.508 3.302C1.882 2.488 2.509 1.839 3.389 1.355C4.269 0.849 5.479 0.596 7.019 0.596H15.995C17.491 0.596 18.701 0.673 19.625 0.826999C20.549 0.981 21.011 1.146 21.011 1.322L20.351 4.094C19.779 4.028 18.481 3.962 16.457 3.896C14.433 3.808 11.716 3.764 8.306 3.764L7.943 3.731C6.931 3.731 6.249 3.94 5.897 4.358C5.545 4.754 5.358 5.26 5.336 5.876V6.437C5.336 7.163 5.534 7.713 5.93 8.087C6.348 8.439 7.03 8.615 7.976 8.615H15.302C16.71 8.615 17.909 8.758 18.899 9.044C19.889 9.33 20.648 9.858 21.176 10.628C21.704 11.376 21.968 12.487 21.968 13.961V14.489C21.968 16.139 21.539 17.47 20.681 18.482C19.845 19.494 18.382 20 16.292 20H5.336ZM32.2924 20C30.7524 20 29.5424 19.78 28.6624 19.34C27.7824 18.9 27.1554 18.24 26.7814 17.36C26.4294 16.48 26.2534 15.391 26.2534 14.093V6.47C26.2534 5.194 26.4294 4.127 26.7814 3.269C27.1334 2.389 27.7494 1.729 28.6294 1.289C29.5094 0.827 30.7304 0.596 32.2924 0.596H41.9284C43.4684 0.596 44.6674 0.827 45.5254 1.289C46.4054 1.729 47.0214 2.389 47.3734 3.269C47.7474 4.127 47.9344 5.194 47.9344 6.47V14.093C47.9344 16.029 47.5054 17.503 46.6474 18.515C45.7894 19.505 44.2164 20 41.9284 20H32.2924ZM33.2494 16.832H41.0044C41.8184 16.832 42.4454 16.623 42.8854 16.205C43.3474 15.787 43.5784 15.215 43.5784 14.489V6.074C43.5784 5.436 43.3474 4.897 42.8854 4.457C42.4234 3.995 41.7964 3.764 41.0044 3.764H33.2494C32.4574 3.764 31.8194 3.973 31.3354 4.391C30.8514 4.809 30.6094 5.37 30.6094 6.074V14.489C30.6094 15.237 30.8404 15.82 31.3024 16.238C31.7864 16.634 32.4354 16.832 33.2494 16.832ZM57.7642 20.33C55.7622 20.33 54.3652 19.791 53.5732 18.713C52.7812 17.635 52.3852 16.205 52.3852 14.423V0.596H56.7412V14.555C56.7412 15.589 56.9942 16.282 57.5002 16.634C58.0062 16.986 58.6332 17.162 59.3812 17.162H66.3772C67.0812 17.162 67.6972 16.986 68.2252 16.634C68.7532 16.26 69.0172 15.567 69.0172 14.555V0.596H73.3732V14.423C73.3732 15.611 73.2082 16.645 72.8782 17.525C72.5482 18.405 71.9982 19.098 71.2282 19.604C70.4582 20.088 69.3912 20.33 68.0272 20.33H57.7642ZM78.1459 20L78.4759 17.36V0.596H82.8319V16.832H96.4939L97.8139 19.637C97.8139 19.725 97.5169 19.813 96.9229 19.901C96.3289 19.967 95.3059 20 93.8539 20H78.1459ZM111.716 20C110.22 20 109.12 19.934 108.416 19.802C107.712 19.67 107.36 19.516 107.36 19.34L108.68 16.469C109.186 16.557 110.44 16.645 112.442 16.733C114.466 16.799 117.238 16.832 120.758 16.832H121.385C122.331 16.832 123.002 16.667 123.398 16.337C123.794 15.985 123.992 15.402 123.992 14.588V13.928C123.992 13.158 123.827 12.608 123.497 12.278C123.189 11.948 122.485 11.783 121.385 11.783H113.729C111.507 11.783 109.89 11.376 108.878 10.562C107.866 9.726 107.36 8.373 107.36 6.503V5.975C107.36 5.007 107.536 4.116 107.888 3.302C108.262 2.488 108.889 1.839 109.769 1.355C110.649 0.849 111.859 0.596 113.399 0.596H122.375C123.871 0.596 125.081 0.673 126.005 0.826999C126.929 0.981 127.391 1.146 127.391 1.322L126.731 4.094C126.159 4.028 124.861 3.962 122.837 3.896C120.813 3.808 118.096 3.764 114.686 3.764L114.323 3.731C113.311 3.731 112.629 3.94 112.277 4.358C111.925 4.754 111.738 5.26 111.716 5.876V6.437C111.716 7.163 111.914 7.713 112.31 8.087C112.728 8.439 113.41 8.615 114.356 8.615H121.682C123.09 8.615 124.289 8.758 125.279 9.044C126.269 9.33 127.028 9.858 127.556 10.628C128.084 11.376 128.348 12.487 128.348 13.961V14.489C128.348 16.139 127.919 17.47 127.061 18.482C126.225 19.494 124.762 20 122.672 20H111.716ZM133.293 20V3.236L132.963 0.562998H147.582C148.99 0.562998 150.09 0.749999 150.882 1.124C151.696 1.498 152.29 1.993 152.664 2.609C153.06 3.203 153.313 3.841 153.423 4.523C153.533 5.205 153.588 5.854 153.588 6.47V8.417C153.588 8.923 153.511 9.495 153.357 10.133C153.203 10.749 152.917 11.354 152.499 11.948C152.081 12.52 151.476 13.004 150.684 13.4C149.892 13.774 148.858 13.961 147.582 13.961H144.216C142.83 13.961 141.532 13.928 140.322 13.862C139.134 13.796 138.243 13.741 137.649 13.697V20H133.293ZM137.649 10.793H146.625C147.615 10.793 148.297 10.551 148.671 10.067C149.045 9.583 149.232 9 149.232 8.318V6.239C149.232 5.535 149.045 4.941 148.671 4.457C148.297 3.973 147.626 3.731 146.658 3.731H137.649V10.793ZM153.591 20L163.26 0.596H169.761L179.397 20H174.315L172.368 15.809H160.554L158.409 20H153.591ZM161.742 12.575H171.147L166.626 3.566H166.296L161.742 12.575ZM187.109 20C185.547 20 184.326 19.78 183.446 19.34C182.566 18.9 181.95 18.24 181.598 17.36C181.246 16.48 181.07 15.391 181.07 14.093V6.734C181.07 4.622 181.543 3.071 182.489 2.081C183.435 1.069 184.975 0.562998 187.109 0.562998H197.042C198.56 0.562998 199.715 0.650999 200.507 0.826999C201.321 0.981 201.728 1.146 201.728 1.322L201.068 4.061C200.694 3.995 199.583 3.929 197.735 3.863C195.909 3.775 193.247 3.731 189.749 3.731H188.066C186.306 3.731 185.426 4.512 185.426 6.074V14.489C185.426 15.237 185.613 15.82 185.987 16.238C186.383 16.634 187.076 16.832 188.066 16.832H189.419C193.071 16.832 195.898 16.799 197.9 16.733C199.924 16.645 201.178 16.557 201.662 16.469L203.015 18.647C203.015 18.757 202.828 18.922 202.454 19.142C202.102 19.362 201.442 19.56 200.474 19.736C199.506 19.912 198.109 20 196.283 20H187.109ZM206.311 20V0.596H226.837V3.764H210.667V8.318H223.009V11.585H210.667V16.832H226.969L228.289 19.637C228.289 19.725 227.992 19.813 227.398 19.901C226.804 19.967 225.781 20 224.329 20H206.311Z" fill="#010101"/>
</svg>
