<svg width="25" height="24" viewBox="0 0 25 24" fill="none" xmlns="http://www.w3.org/2000/svg">
<path d="M4.41581 18.4092L4.89311 17.9319L4.41581 18.4092ZM4.41581 5.59086L3.93851 5.11356L4.41581 5.59086ZM6.39108 5.54031C6.76208 5.50382 7.03325 5.17348 6.99676 4.80248C6.96027 4.43148 6.62993 4.1603 6.25892 4.1968L6.39108 5.54031ZM6.25892 19.8033C6.62993 19.8398 6.96027 19.5686 6.99676 19.1976C7.03325 18.8266 6.76208 18.4963 6.39108 18.4598L6.25892 19.8033ZM20.8342 18.4092L20.3569 17.9319L20.8342 18.4092ZM20.8342 5.59086L20.3569 6.06816L20.8342 5.59086ZM18.9911 4.1968C18.6201 4.1603 18.2897 4.43148 18.2532 4.80248C18.2167 5.17348 18.4879 5.50382 18.8589 5.54031L18.9911 4.1968ZM18.8589 18.4598C18.4879 18.4963 18.2167 18.8266 18.2532 19.1976C18.2897 19.5686 18.6201 19.8398 18.9911 19.8033L18.8589 18.4598ZM9.925 12.225C9.55221 12.225 9.25 12.5272 9.25 12.9C9.25 13.2728 9.55221 13.575 9.925 13.575V12.225ZM15.325 13.575C15.6978 13.575 16 13.2728 16 12.9C16 12.5272 15.6978 12.225 15.325 12.225V13.575ZM9.925 8.625C9.55221 8.625 9.25 8.92721 9.25 9.3C9.25 9.67279 9.55221 9.975 9.925 9.975V8.625ZM15.325 9.975C15.6978 9.975 16 9.67279 16 9.3C16 8.92721 15.6978 8.625 15.325 8.625V9.975ZM9.925 15.825C9.55221 15.825 9.25 16.1272 9.25 16.5C9.25 16.8728 9.55221 17.175 9.925 17.175V15.825ZM12.625 17.175C12.9978 17.175 13.3 16.8728 13.3 16.5C13.3 16.1272 12.9978 15.825 12.625 15.825V17.175ZM11.725 3.675H13.525V2.325H11.725V3.675ZM18.25 8.4V15.6H19.6V8.4H18.25ZM13.525 20.325H11.725V21.675H13.525V20.325ZM7 15.6V8.4H5.65V15.6H7ZM11.725 20.325C10.4331 20.325 9.53212 20.3236 8.85231 20.2322C8.19191 20.1434 7.8422 19.981 7.59311 19.7319L6.63851 20.6865C7.18024 21.2282 7.86233 21.4612 8.67242 21.5701C9.4631 21.6764 10.4713 21.675 11.725 21.675V20.325ZM5.65 15.6C5.65 16.8537 5.64857 17.8619 5.75487 18.6526C5.86379 19.4627 6.09679 20.1448 6.63851 20.6865L7.59311 19.7319C7.34402 19.4828 7.18162 19.1331 7.09283 18.4727C7.00143 17.7929 7 16.8919 7 15.6H5.65ZM18.25 15.6C18.25 16.8919 18.2486 17.7929 18.1572 18.4727C18.0684 19.1331 17.906 19.4828 17.6569 19.7319L18.6115 20.6865C19.1532 20.1448 19.3862 19.4627 19.4951 18.6526C19.6014 17.8619 19.6 16.8537 19.6 15.6H18.25ZM13.525 21.675C14.7787 21.675 15.7869 21.6764 16.5776 21.5701C17.3877 21.4612 18.0698 21.2282 18.6115 20.6865L17.6569 19.7319C17.4078 19.981 17.0581 20.1434 16.3977 20.2322C15.7179 20.3236 14.8169 20.325 13.525 20.325V21.675ZM13.525 3.675C14.8169 3.675 15.7179 3.67643 16.3977 3.76783C17.0581 3.85662 17.4078 4.01902 17.6569 4.26811L18.6115 3.31351C18.0698 2.77179 17.3877 2.53879 16.5776 2.42987C15.7869 2.32357 14.7787 2.325 13.525 2.325V3.675ZM19.6 8.4C19.6 7.14629 19.6014 6.1381 19.4951 5.34742C19.3862 4.53733 19.1532 3.85524 18.6115 3.31351L17.6569 4.26811C17.906 4.5172 18.0684 4.86691 18.1572 5.52731C18.2486 6.20712 18.25 7.10813 18.25 8.4H19.6ZM11.725 2.325C10.4713 2.325 9.4631 2.32357 8.67242 2.42987C7.86233 2.53879 7.18024 2.77179 6.63851 3.31351L7.59311 4.26811C7.8422 4.01902 8.19191 3.85662 8.85231 3.76783C9.53212 3.67643 10.4331 3.675 11.725 3.675V2.325ZM7 8.4C7 7.10813 7.00143 6.20712 7.09283 5.52731C7.18162 4.86691 7.34402 4.5172 7.59311 4.26811L6.63851 3.31351C6.09679 3.85524 5.86379 4.53733 5.75487 5.34742C5.64857 6.1381 5.65 7.14629 5.65 8.4H7ZM4.3 13.8V10.2H2.95V13.8H4.3ZM2.95 13.8C2.95 15.0538 2.94857 16.0619 3.05487 16.8526C3.16379 17.6627 3.39679 18.3448 3.93851 18.8865L4.89311 17.9319C4.64402 17.6829 4.48162 17.3331 4.39283 16.6727C4.30143 15.9929 4.3 15.0919 4.3 13.8H2.95ZM4.3 10.2C4.3 8.90817 4.30143 8.00717 4.39283 7.32736C4.48162 6.66696 4.64402 6.31724 4.89311 6.06816L3.93851 5.11356C3.39679 5.65529 3.16379 6.33737 3.05487 7.14747C2.94857 7.93815 2.95 8.94634 2.95 10.2H4.3ZM6.25892 4.1968C5.32218 4.28894 4.54297 4.50911 3.93851 5.11356L4.89311 6.06816C5.17045 5.79082 5.57267 5.62081 6.39108 5.54031L6.25892 4.1968ZM6.39108 18.4598C5.57267 18.3793 5.17045 18.2093 4.89311 17.9319L3.93851 18.8865C4.54297 19.491 5.32218 19.7112 6.25892 19.8033L6.39108 18.4598ZM22.3 13.8V10.2H20.95V13.8H22.3ZM20.95 13.8C20.95 15.0919 20.9486 15.9929 20.8572 16.6727C20.7684 17.3331 20.606 17.6829 20.3569 17.9319L21.3115 18.8865C21.8532 18.3448 22.0862 17.6627 22.1951 16.8526C22.3014 16.0619 22.3 15.0538 22.3 13.8H20.95ZM22.3 10.2C22.3 8.94634 22.3014 7.93815 22.1951 7.14747C22.0862 6.33737 21.8532 5.65529 21.3115 5.11356L20.3569 6.06816C20.606 6.31724 20.7684 6.66696 20.8572 7.32736C20.9486 8.00717 20.95 8.90817 20.95 10.2H22.3ZM18.8589 5.54031C19.6773 5.62081 20.0796 5.79082 20.3569 6.06816L21.3115 5.11356C20.707 4.50911 19.9278 4.28894 18.9911 4.1968L18.8589 5.54031ZM18.9911 19.8033C19.9278 19.7112 20.707 19.491 21.3115 18.8865L20.3569 17.9319C20.0796 18.2093 19.6773 18.3793 18.8589 18.4598L18.9911 19.8033ZM9.925 13.575H15.325V12.225H9.925V13.575ZM9.925 9.975H15.325V8.625H9.925V9.975ZM9.925 17.175H12.625V15.825H9.925V17.175Z" fill="#64748B"/>
</svg>
