<svg width="25" height="24" viewBox="0 0 25 24" fill="none" xmlns="http://www.w3.org/2000/svg">
<path d="M2.375 10.0004V14.0004C2.375 16.8288 2.375 18.243 3.25368 19.1217C3.47102 19.339 3.72112 19.5026 4.01728 19.6257C4.01056 19.5812 4.00422 19.5366 3.99821 19.492C3.87486 18.5745 3.87492 17.4288 3.875 16.099L3.875 8.0003L3.875 7.90155V7.90155C3.87492 6.57182 3.87486 5.4261 3.99821 4.50861C4.00421 4.46399 4.01055 4.41944 4.01726 4.375C3.72111 4.49812 3.47101 4.6617 3.25368 4.87903C2.375 5.75771 2.375 7.17192 2.375 10.0004Z" fill="#00B795"/>
<path d="M22.375 10.0004V14.0004C22.375 16.8288 22.375 18.243 21.4963 19.1217C21.279 19.339 21.0289 19.5026 20.7327 19.6257C20.7394 19.5812 20.7458 19.5366 20.7518 19.492C20.8751 18.5745 20.8751 17.4288 20.875 16.099V7.90156C20.8751 6.57183 20.8751 5.4261 20.7518 4.50861C20.7458 4.46399 20.7394 4.41944 20.7327 4.375C21.0289 4.49812 21.279 4.6617 21.4963 4.87903C22.375 5.75771 22.375 7.17192 22.375 10.0004Z" fill="#00B795"/>
<path fill-rule="evenodd" clip-rule="evenodd" d="M6.25368 2.87868C5.375 3.75736 5.375 5.17157 5.375 8V16C5.375 18.8284 5.375 20.2426 6.25368 21.1213C7.13236 22 8.54657 22 11.375 22H13.375C16.2034 22 17.6176 22 18.4963 21.1213C19.375 20.2426 19.375 18.8284 19.375 16V8C19.375 5.17157 19.375 3.75736 18.4963 2.87868C17.6176 2 16.2034 2 13.375 2H11.375C8.54657 2 7.13236 2 6.25368 2.87868ZM8.625 17C8.625 16.5858 8.96079 16.25 9.375 16.25H12.375C12.7892 16.25 13.125 16.5858 13.125 17C13.125 17.4142 12.7892 17.75 12.375 17.75H9.375C8.96079 17.75 8.625 17.4142 8.625 17ZM9.375 12.25C8.96079 12.25 8.625 12.5858 8.625 13C8.625 13.4142 8.96079 13.75 9.375 13.75H15.375C15.7892 13.75 16.125 13.4142 16.125 13C16.125 12.5858 15.7892 12.25 15.375 12.25H9.375ZM8.625 9C8.625 8.58579 8.96079 8.25 9.375 8.25H15.375C15.7892 8.25 16.125 8.58579 16.125 9C16.125 9.41421 15.7892 9.75 15.375 9.75H9.375C8.96079 9.75 8.625 9.41421 8.625 9Z" fill="#00B795"/>
</svg>
