<svg width="25" height="24" viewBox="0 0 25 24" fill="none" xmlns="http://www.w3.org/2000/svg">
<path d="M7.83663 3.86711L8.22046 4.51146L7.83663 3.86711ZM16.4131 3.86711L16.797 3.22277L16.4131 3.86711ZM2.76772 14.8955L2.02536 15.0023H2.02536L2.76772 14.8955ZM21.482 14.8955L20.7397 14.7887H20.7397L21.482 14.8955ZM17.798 4.69205L17.4141 5.33639L17.798 4.69205ZM21.7608 12.9581L22.5032 13.0649H22.5032L21.7608 12.9581ZM6.45179 4.69205L6.06796 4.04771H6.06796L6.45179 4.69205ZM2.48895 12.9581L3.2313 12.8513L2.48895 12.9581ZM9.57159 15.3975C9.23882 15.1509 8.76911 15.2207 8.52245 15.5534C8.27579 15.8862 8.3456 16.3559 8.67836 16.6026L9.57159 15.3975ZM15.5716 16.6026C15.9044 16.3559 15.9742 15.8862 15.7275 15.5534C15.4808 15.2207 15.0111 15.1509 14.6784 15.3975L15.5716 16.6026ZM13.231 21.2502H11.0188V22.7502H13.231V21.2502ZM6.83562 5.33639L8.22046 4.51146L7.4528 3.22277L6.06796 4.04771L6.83562 5.33639ZM16.0293 4.51145L17.4141 5.33639L18.1818 4.04771L16.797 3.22277L16.0293 4.51145ZM3.51007 14.7886L3.2313 12.8513L1.7466 13.0649L2.02536 15.0023L3.51007 14.7886ZM21.0185 12.8513L20.7397 14.7887L22.2244 15.0023L22.5032 13.0649L21.0185 12.8513ZM8.22046 4.51146C9.27796 3.88151 10.0241 3.43805 10.6486 3.14658C11.2577 2.86228 11.6956 2.75024 12.1249 2.75024V1.25024C11.3998 1.25024 10.7383 1.44936 10.0142 1.78735C9.30541 2.11816 8.48459 2.60814 7.4528 3.22277L8.22046 4.51146ZM16.797 3.22277C15.7652 2.60814 14.9443 2.11816 14.2356 1.78735C13.5115 1.44936 12.8499 1.25024 12.1249 1.25024V2.75024C12.5541 2.75024 12.9921 2.86228 13.6012 3.14658C14.2256 3.43805 14.9718 3.8815 16.0293 4.51145L16.797 3.22277ZM11.0188 21.2502C9.27612 21.2502 8.03893 21.2489 7.08787 21.1296C6.15733 21.0129 5.59616 20.7928 5.16328 20.4201L4.18453 21.5568C4.92671 22.1958 5.81472 22.4817 6.90122 22.6179C7.96721 22.7516 9.31493 22.7502 11.0188 22.7502V21.2502ZM2.02536 15.0023C2.26627 16.6765 2.45563 18.0025 2.73999 19.0324C3.03011 20.0832 3.44173 20.9172 4.18453 21.5568L5.16328 20.4201C4.73102 20.0479 4.43325 19.5291 4.18589 18.6332C3.93278 17.7165 3.75658 16.5018 3.51007 14.7886L2.02536 15.0023ZM13.231 22.7502C14.9348 22.7502 16.2826 22.7516 17.3485 22.6179C18.435 22.4817 19.323 22.1958 20.0652 21.5568L19.0865 20.4201C18.6536 20.7928 18.0924 21.0129 17.1619 21.1296C16.2108 21.2489 14.9736 21.2502 13.231 21.2502V22.7502ZM20.7397 14.7887C20.4932 16.5018 20.317 17.7165 20.0639 18.6332C19.8165 19.5291 19.5187 20.0479 19.0865 20.4201L20.0652 21.5568C20.808 20.9172 21.2197 20.0832 21.5098 19.0324C21.7941 18.0025 21.9835 16.6765 22.2244 15.0023L20.7397 14.7887ZM17.4141 5.33639C18.5784 6.02997 19.4001 6.52058 20.0029 6.97415C20.5914 7.41686 20.9137 7.78319 21.1132 8.19941L22.4658 7.55096C22.1249 6.83985 21.6017 6.29987 20.9047 5.77549C20.2221 5.26195 19.3182 4.72467 18.1818 4.04771L17.4141 5.33639ZM22.5032 13.0649C22.6905 11.7626 22.8407 10.7266 22.8697 9.87609C22.8993 9.00704 22.8069 8.26243 22.4658 7.55096L21.1132 8.19941C21.3126 8.61529 21.3955 9.09361 21.3706 9.82493C21.345 10.5748 21.2105 11.5166 21.0184 12.8513L22.5032 13.0649ZM6.06796 4.04771C4.93155 4.72467 4.02762 5.26195 3.34503 5.77549C2.64801 6.29987 2.12486 6.83985 1.78395 7.55096L3.13654 8.19941C3.33609 7.78319 3.65835 7.41686 4.24681 6.97415C4.84969 6.52058 5.67131 6.02997 6.83562 5.33639L6.06796 4.04771ZM3.2313 12.8513C3.03925 11.5165 2.90478 10.5748 2.8792 9.82493C2.85424 9.09361 2.93717 8.61529 3.13654 8.19941L1.78395 7.55096C1.44286 8.26243 1.35042 9.00704 1.38007 9.87609C1.40909 10.7266 1.55921 11.7626 1.7466 13.0649L3.2313 12.8513ZM12.125 16.25C11.1791 16.25 10.2999 15.9374 9.57159 15.3975L8.67836 16.6026C9.65078 17.3233 10.84 17.75 12.125 17.75V16.25ZM14.6784 15.3975C13.95 15.9374 13.0709 16.25 12.125 16.25V17.75C13.4099 17.75 14.5992 17.3233 15.5716 16.6026L14.6784 15.3975Z" fill="#64748B"/>
</svg>
