<svg width="25" height="24" viewBox="0 0 25 24" fill="none" xmlns="http://www.w3.org/2000/svg">
<path fill-rule="evenodd" clip-rule="evenodd" d="M13.2311 22H11.0189C7.57237 22 5.84909 22 4.67403 20.9882C3.49896 19.9764 3.25525 18.2827 2.76784 14.8952L2.48907 12.9579C2.10963 10.3208 1.91991 9.00229 2.46037 7.87495C3.00083 6.7476 4.15119 6.06234 6.45191 4.69181L7.83675 3.86687C9.92604 2.62229 10.9707 2 12.125 2C13.2793 2 14.324 2.62229 16.4132 3.86687L17.7981 4.69181C20.0988 6.06234 21.2492 6.7476 21.7896 7.87495C22.3301 9.00229 22.1404 10.3208 21.7609 12.9579L21.4822 14.8952C20.9947 18.2827 20.751 19.9764 19.576 20.9882C18.4009 22 16.6776 22 13.2311 22ZM8.52257 15.5532C8.76923 15.2204 9.23895 15.1506 9.57171 15.3973C10.3001 15.9371 11.1792 16.2498 12.1251 16.2498C13.071 16.2498 13.9501 15.9371 14.6785 15.3973C15.0113 15.1506 15.481 15.2204 15.7276 15.5532C15.9743 15.8859 15.9045 16.3557 15.5717 16.6023C14.5993 17.3231 13.4101 17.7498 12.1251 17.7498C10.8401 17.7498 9.6509 17.3231 8.67849 16.6023C8.34572 16.3557 8.27592 15.8859 8.52257 15.5532Z" fill="#00B795"/>
</svg>
