<svg width="24" height="24" viewBox="0 0 24 24" fill="none" xmlns="http://www.w3.org/2000/svg">
<g id="bubble-chat">
<g id="content">
<path id="Vector" d="M21.9976 11.5651C21.9976 16.8479 17.5202 21.1311 11.9983 21.1311C11.3491 21.132 10.7017 21.0719 10.0639 20.9522C9.60482 20.8659 9.37529 20.8228 9.21505 20.8473C9.05481 20.8718 8.82773 20.9926 8.37357 21.2341C7.08881 21.9173 5.59073 22.1586 4.14998 21.8906C4.69758 21.2171 5.07155 20.4089 5.23658 19.5426C5.33657 19.0127 5.08881 18.4979 4.71772 18.121C3.03229 16.4096 1.99902 14.1033 1.99902 11.5651C1.99902 6.2823 6.47649 1.99902 11.9983 1.99902C17.5202 1.99902 21.9976 6.2823 21.9976 11.5651Z" fill="#53A700"/>
<g id="Vector_2">
<path fill-rule="evenodd" clip-rule="evenodd" d="M11.9943 11.9983H12.0032H11.9943Z" fill="white"/>
<path fill-rule="evenodd" clip-rule="evenodd" d="M15.9895 11.9983H15.9985H15.9895Z" fill="white"/>
<path fill-rule="evenodd" clip-rule="evenodd" d="M7.99902 11.9983H8.00799H7.99902Z" fill="white"/>
<path d="M11.9943 11.9983H12.0032M15.9895 11.9983H15.9985M7.99902 11.9983H8.00799" stroke="white" stroke-width="1.99986" stroke-linecap="round" stroke-linejoin="round"/>
</g>
</g>
</g>
</svg>
